# Blender v2.67 (sub 0) OBJ File: ''
# www.blender.org
o Cube
v 1.062237 0.017777 -1.062783
v 1.000000 0.080559 1.000000
v -1.000000 0.080559 1.000000
v -1.000000 0.080559 -1.000000
v 1.181826 2.265668 -1.194436
v 1.177651 2.257591 1.180391
v -1.093449 2.168279 1.088076
v -1.070014 2.143631 -1.066617
vt 0.000000 0.000000
vt 1.000000 0.000000
vt 0.000000 1.000000
vt 1.000000 1.000000
vn -0.029519 -0.999128 0.029519
vn -0.054791 0.998426 -0.012017
vn 0.998183 -0.051249 0.031677
vn -0.000000 -0.082578 0.996585
vn -0.999000 -0.044717 -0.000000
vn -0.032106 -0.056735 -0.997873
vn 0.000000 -1.000000 0.000000
vn -0.039430 0.999217 0.003329
vn 0.996676 -0.081453 0.001475
vn -0.038853 -0.043854 0.998282
vn -0.999358 -0.034253 -0.010478
vn -0.054797 -0.034082 -0.997916
s off
f 1/1/1 2/2/1 4/3/1
f 5/1/2 8/2/2 7/4/2
f 1/1/3 5/2/3 2/3/3
f 2/1/4 6/2/4 3/3/4
f 3/1/5 7/2/5 4/3/5
f 5/1/6 1/2/6 4/4/6
f 2/2/7 3/4/7 4/3/7
f 6/3/8 5/1/8 7/4/8
f 5/2/9 6/4/9 2/3/9
f 6/2/10 7/4/10 3/3/10
f 7/2/11 8/4/11 4/3/11
f 8/3/12 5/1/12 4/4/12
